<svg width="473" height="539" viewBox="0 0 473 539" fill="none" xmlns="http://www.w3.org/2000/svg">
<path d="M370.62 269.791H180.318C179.266 269.791 178.224 269.584 177.251 269.181C176.279 268.779 175.396 268.188 174.651 267.444C173.907 266.7 173.317 265.816 172.914 264.844C172.511 263.872 172.304 262.83 172.304 261.777C172.304 260.725 172.511 259.683 172.914 258.71C173.317 257.738 173.907 256.855 174.651 256.11C175.396 255.366 176.279 254.776 177.251 254.373C178.224 253.97 179.266 253.763 180.318 253.763H370.62C372.744 253.766 374.78 254.611 376.281 256.114C377.782 257.616 378.625 259.653 378.625 261.777C378.625 263.901 377.782 265.938 376.281 267.441C374.78 268.944 372.744 269.789 370.62 269.791V269.791Z" fill="#81E6B6"/>
<path d="M403.678 296.839H180.318C179.265 296.84 178.222 296.634 177.248 296.232C176.275 295.83 175.391 295.239 174.645 294.495C173.9 293.751 173.309 292.867 172.906 291.894C172.503 290.921 172.295 289.878 172.295 288.825C172.295 287.772 172.503 286.729 172.906 285.756C173.309 284.783 173.9 283.899 174.645 283.155C175.391 282.411 176.275 281.821 177.248 281.418C178.222 281.016 179.265 280.81 180.318 280.811H403.678C404.731 280.81 405.774 281.016 406.748 281.418C407.721 281.821 408.605 282.411 409.351 283.155C410.096 283.899 410.687 284.783 411.09 285.756C411.493 286.729 411.701 287.772 411.701 288.825C411.701 289.878 411.493 290.921 411.09 291.894C410.687 292.867 410.096 293.751 409.351 294.495C408.605 295.239 407.721 295.83 406.748 296.232C405.774 296.634 404.731 296.84 403.678 296.839Z" fill="#81E6B6"/>
<path d="M105 309C123.778 309 139 293.778 139 275C139 256.222 123.778 241 105 241C86.2223 241 71 256.222 71 275C71 293.778 86.2223 309 105 309Z" fill="#81E6B6"/>
<path d="M370.62 171.791H180.318C179.266 171.791 178.224 171.584 177.251 171.181C176.279 170.779 175.396 170.188 174.651 169.444C173.907 168.7 173.317 167.816 172.914 166.844C172.511 165.872 172.304 164.83 172.304 163.777C172.304 162.725 172.511 161.683 172.914 160.71C173.317 159.738 173.907 158.855 174.651 158.11C175.396 157.366 176.279 156.776 177.251 156.373C178.224 155.97 179.266 155.763 180.318 155.763H370.62C372.744 155.766 374.78 156.611 376.281 158.114C377.782 159.616 378.625 161.653 378.625 163.777C378.625 165.901 377.782 167.938 376.281 169.441C374.78 170.944 372.744 171.789 370.62 171.791V171.791Z" fill="#81E6B6"/>
<path d="M403.678 198.839H180.318C179.265 198.84 178.222 198.634 177.248 198.232C176.275 197.83 175.391 197.239 174.645 196.495C173.9 195.751 173.309 194.867 172.906 193.894C172.503 192.921 172.295 191.878 172.295 190.825C172.295 189.772 172.503 188.729 172.906 187.756C173.309 186.783 173.9 185.899 174.645 185.155C175.391 184.411 176.275 183.821 177.248 183.418C178.222 183.016 179.265 182.81 180.318 182.811H403.678C404.731 182.81 405.774 183.016 406.748 183.418C407.721 183.821 408.605 184.411 409.351 185.155C410.096 185.899 410.687 186.783 411.09 187.756C411.493 188.729 411.701 189.772 411.701 190.825C411.701 191.878 411.493 192.921 411.09 193.894C410.687 194.867 410.096 195.751 409.351 196.495C408.605 197.239 407.721 197.83 406.748 198.232C405.774 198.634 404.731 198.84 403.678 198.839Z" fill="#81E6B6"/>
<path d="M105 211C123.778 211 139 195.778 139 177C139 158.222 123.778 143 105 143C86.2223 143 71 158.222 71 177C71 195.778 86.2223 211 105 211Z" fill="#81E6B6"/>
<path d="M366.62 73.7914H176.318C175.266 73.7914 174.224 73.5841 173.251 73.1814C172.279 72.7786 171.396 72.1883 170.651 71.4441C169.907 70.6999 169.317 69.8165 168.914 68.8441C168.511 67.8718 168.304 66.8297 168.304 65.7773C168.304 64.7249 168.511 63.6827 168.914 62.7104C169.317 61.7381 169.907 60.8546 170.651 60.1104C171.396 59.3663 172.279 58.7759 173.251 58.3732C174.224 57.9705 175.266 57.7632 176.318 57.7632H366.62C368.744 57.7656 370.78 58.6109 372.281 60.1136C373.782 61.6163 374.625 63.6534 374.625 65.7773C374.625 67.9012 373.782 69.9383 372.281 71.4409C370.78 72.9436 368.744 73.789 366.62 73.7914V73.7914Z" fill="#81E6B6"/>
<path d="M399.678 100.839H176.318C175.265 100.84 174.222 100.634 173.248 100.232C172.275 99.8296 171.391 99.2394 170.645 98.4951C169.9 97.7508 169.309 96.8669 168.906 95.894C168.503 94.9211 168.295 93.8783 168.295 92.8251C168.295 91.772 168.503 90.7291 168.906 89.7562C169.309 88.7833 169.9 87.8995 170.645 87.1552C171.391 86.4109 172.275 85.8207 173.248 85.4185C174.222 85.0162 175.265 84.8099 176.318 84.811H399.678C400.731 84.8099 401.774 85.0162 402.748 85.4185C403.721 85.8207 404.605 86.4109 405.351 87.1552C406.096 87.8995 406.687 88.7833 407.09 89.7562C407.493 90.7291 407.701 91.772 407.701 92.8251C407.701 93.8783 407.493 94.9211 407.09 95.894C406.687 96.8669 406.096 97.7508 405.351 98.4951C404.605 99.2394 403.721 99.8296 402.748 100.232C401.774 100.634 400.731 100.84 399.678 100.839Z" fill="#81E6B6"/>
<path d="M101 113C119.778 113 135 97.7777 135 79C135 60.2223 119.778 45 101 45C82.2223 45 67 60.2223 67 79C67 97.7777 82.2223 113 101 113Z" fill="#81E6B6"/>
<path d="M370.62 367.005H180.318C178.193 367.005 176.154 366.16 174.651 364.658C173.149 363.155 172.304 361.116 172.304 358.991C172.304 356.865 173.149 354.827 174.651 353.324C176.154 351.821 178.193 350.977 180.318 350.977H370.62C372.745 350.977 374.784 351.821 376.287 353.324C377.79 354.827 378.634 356.865 378.634 358.991C378.634 361.116 377.79 363.155 376.287 364.658C374.784 366.16 372.745 367.005 370.62 367.005V367.005Z" fill="#81E6B6"/>
<path d="M403.678 394.053H180.318C178.193 394.053 176.154 393.208 174.651 391.705C173.149 390.202 172.304 388.164 172.304 386.039C172.304 383.913 173.149 381.875 174.651 380.372C176.154 378.869 178.193 378.024 180.318 378.024H403.678C405.804 378.024 407.842 378.869 409.345 380.372C410.848 381.875 411.692 383.913 411.692 386.039C411.692 388.164 410.848 390.202 409.345 391.705C407.842 393.208 405.804 394.053 403.678 394.053Z" fill="#81E6B6"/>
<path d="M105 407C123.778 407 139 391.778 139 373C139 354.222 123.778 339 105 339C86.2223 339 71 354.222 71 373C71 391.778 86.2223 407 105 407Z" fill="#81E6B6"/>
<path d="M370.62 465.005H180.318C178.193 465.005 176.154 464.16 174.651 462.658C173.149 461.155 172.304 459.116 172.304 456.991C172.304 454.865 173.149 452.827 174.651 451.324C176.154 449.821 178.193 448.977 180.318 448.977H370.62C372.745 448.977 374.784 449.821 376.287 451.324C377.79 452.827 378.634 454.865 378.634 456.991C378.634 459.116 377.79 461.155 376.287 462.658C374.784 464.16 372.745 465.005 370.62 465.005V465.005Z" fill="#81E6B6"/>
<path d="M403.678 492.053H180.318C178.193 492.053 176.154 491.208 174.651 489.705C173.149 488.202 172.304 486.164 172.304 484.039C172.304 481.913 173.149 479.875 174.651 478.372C176.154 476.869 178.193 476.024 180.318 476.024H403.678C405.804 476.024 407.842 476.869 409.345 478.372C410.848 479.875 411.692 481.913 411.692 484.039C411.692 486.164 410.848 488.202 409.345 489.705C407.842 491.208 405.804 492.053 403.678 492.053V492.053Z" fill="#81E6B6"/>
<path d="M105 505C123.778 505 139 489.778 139 471C139 452.222 123.778 437 105 437C86.2223 437 71 452.222 71 471C71 489.778 86.2223 505 105 505Z" fill="#81E6B6"/>
<rect x="7.80615" y="8.20215" width="457.568" height="523.126" rx="42.5" stroke="#81E6B6" stroke-width="15"/>
</svg>
